<svg width="42" height="32" viewBox="0 0 42 32" fill="none" xmlns="http://www.w3.org/2000/svg">
<path fill-rule="evenodd" clip-rule="evenodd" d="M22.9938 0H27.697C34.9564 0 41.3978 5.47097 41.5 13.1097C41.5 20.0258 35.6721 26.1161 27.7993 26.1161H23.1983C22.5848 26.1161 22.0736 26.529 21.9713 27.1484L21.2556 30.5548C21.1534 31.3806 20.3354 32 19.5175 32H14.2007C6.12344 32 0.5 25.8064 0.5 18.9935C0.5 11.3548 7.04364 5.9871 14.0985 5.88387H19.313C19.9264 5.88387 20.4377 5.47097 20.5399 4.85161L21.2556 1.44516C21.3579 0.619355 22.1758 0 22.9938 0ZM22.0737 21.0582H27.5948C32.4003 21.0582 36.1834 17.5486 36.2856 13.1098C36.2856 8.25823 31.9914 5.16146 27.5948 5.16146H24.323C23.7096 5.16146 23.1983 5.57436 23.0961 6.19372L22.3804 9.49694C22.1759 10.3228 21.4602 10.9421 20.6422 10.9421H14.3031C9.59984 10.9421 5.6123 14.3486 5.6123 18.8905C5.6123 23.8453 10.1111 26.8389 14.3031 26.8389H18.3929C19.0063 26.8389 19.5175 26.426 19.6198 25.8066L20.3355 22.5034C20.54 21.6776 21.2557 21.0582 22.0737 21.0582Z" fill="black"/>
</svg>
