<svg width="42" height="32" fill="none" xmlns="http://www.w3.org/2000/svg"><path fill-rule="evenodd" clip-rule="evenodd" d="M22.994 0h4.703c7.26 0 13.7 5.471 13.803 13.11 0 6.916-5.828 13.006-13.7 13.006h-4.602c-.613 0-1.124.413-1.227 1.032l-.715 3.407c-.103.826-.92 1.445-1.739 1.445h-5.316C6.123 32 .5 25.806.5 18.994c0-7.64 6.544-13.007 13.598-13.11h5.215c.613 0 1.125-.413 1.227-1.032l.716-3.407C21.358.62 22.176 0 22.994 0zm-.92 21.058h5.52c4.806 0 8.59-3.51 8.692-7.948 0-4.852-4.295-7.949-8.691-7.949h-3.272c-.613 0-1.125.413-1.227 1.033l-.716 3.303c-.204.826-.92 1.445-1.738 1.445h-6.339c-4.703 0-8.69 3.407-8.69 7.948 0 4.955 4.498 7.949 8.69 7.949h4.09c.613 0 1.124-.413 1.227-1.032l.715-3.304c.205-.825.92-1.445 1.739-1.445z" fill="#000"/></svg>